{
    "asset" : {
        "generator" : "Khronos glTF Blender I/O v1.5.17",
        "version" : "2.0"
    },
    "scene" : 0,
    "scenes" : [
        {
            "name" : "Scene",
            "nodes" : [
                0
            ]
        }
    ],
    "nodes" : [
        {
            "mesh" : 0,
            "name" : "donut.002",
            "translation" : [
                -0.022117290645837784,
                0.0806930884718895,
                0.016644027084112167
            ]
        }
    ],
    "materials" : [
        {
            "doubleSided" : true,
            "name" : "Material.003",
            "pbrMetallicRoughness" : {
                "baseColorFactor" : [
                    0.8000000715255737,
                    0.3613160252571106,
                    0.11868094652891159,
                    1
                ],
                "metallicFactor" : 0,
                "roughnessFactor" : 0.3512396812438965
            }
        }
    ],
    "meshes" : [
        {
            "name" : "Torus.004",
            "primitives" : [
                {
                    "attributes" : {
                        "POSITION" : 0,
                        "NORMAL" : 1,
                        "TEXCOORD_0" : 2
                    },
                    "indices" : 3,
                    "material" : 0
                }
            ]
        }
    ],
    "accessors" : [
        {
            "bufferView" : 0,
            "componentType" : 5126,
            "count" : 1425,
            "max" : [
                0.14568142592906952,
                0.047479476779699326,
                0.1322600543498993
            ],
            "min" : [
                -0.14953386783599854,
                -0.04394138976931572,
                -0.1435132920742035
            ],
            "type" : "VEC3"
        },
        {
            "bufferView" : 1,
            "componentType" : 5126,
            "count" : 1425,
            "type" : "VEC3"
        },
        {
            "bufferView" : 2,
            "componentType" : 5126,
            "count" : 1425,
            "type" : "VEC2"
        },
        {
            "bufferView" : 3,
            "componentType" : 5123,
            "count" : 8064,
            "type" : "SCALAR"
        }
    ],
    "bufferViews" : [
        {
            "buffer" : 0,
            "byteLength" : 17100,
            "byteOffset" : 0
        },
        {
            "buffer" : 0,
            "byteLength" : 17100,
            "byteOffset" : 17100
        },
        {
            "buffer" : 0,
            "byteLength" : 11400,
            "byteOffset" : 34200
        },
        {
            "buffer" : 0,
            "byteLength" : 16128,
            "byteOffset" : 45600
        }
    ],
    "buffers" : [
        {
            "byteLength" : 61728,
            "uri" : "data:application/octet-stream;base64,"
        }
    ]
}
